<svg id="WORKING" xmlns="http://www.w3.org/2000/svg" viewBox="0 0 300 300"><defs><style>.cls-1{fill:none;}.cls-2{fill:#002050;}.cls-3{fill:#0064b5;}.cls-4{fill:#fff;}.cls-5{fill:#505050;}.cls-6{fill:#282828;}</style></defs><rect class="cls-1" x="10" y="10.44" width="280" height="280"/><path class="cls-2" d="M148.39,284.15c-3.8-1.3-93.2-32.44-93.2-88.58V54.67A16.48,16.48,0,0,1,66.34,39.06l74.88-22.63A27.45,27.45,0,0,1,150,15a27.81,27.81,0,0,1,9,1.48L233.5,39a16.52,16.52,0,0,1,11.31,15.66v140.9c0,55.32-89.34,87.23-93.15,88.57l-1.63.57Z"/><path class="cls-2" d="M150,20a22.78,22.78,0,0,1,7.34,1.22l74.7,22.58a11.47,11.47,0,0,1,7.76,10.87v140.9c0,52.41-89.8,83.85-89.8,83.85s-89.82-30.65-89.82-83.85V54.67A11.47,11.47,0,0,1,68,43.8l74.72-22.58A22.78,22.78,0,0,1,150,20m0-10h0a32.77,32.77,0,0,0-10.39,1.69L65.06,34.22l-.17.05-.16.06A21.47,21.47,0,0,0,50.19,54.67v140.9c0,59.67,92.64,92,96.59,93.31l3.27,1.12,3.26-1.14c3.94-1.38,96.51-34.46,96.51-93.29V54.67a21.48,21.48,0,0,0-14.54-20.34l-.17-.06-.16-.05L160.39,11.69A32.67,32.67,0,0,0,150,10Z"/><path class="cls-3" d="M60.19,168.19v27.38c0,53.2,89.82,83.85,89.82,83.85s89.8-31.44,89.8-83.85V168.19Z"/><path class="cls-4" d="M113.51,78.94h-4V68.17c0-1.17,0-2.46.15-3.86h-.1a20.12,20.12,0,0,1-.57,2.38l-4.22,12.25h-3.32L97.16,66.82a22.53,22.53,0,0,1-.57-2.51h-.11c.11,1.77.16,3.33.16,4.67v10H93v-18h5.94l3.68,10.68a15.83,15.83,0,0,1,.64,2.57h.08a24.76,24.76,0,0,1,.71-2.6l3.68-10.65h5.79Z"/><path class="cls-4" d="M119.22,64.05a2.3,2.3,0,0,1-1.64-.6,1.92,1.92,0,0,1-.64-1.46,1.85,1.85,0,0,1,.64-1.46,2.37,2.37,0,0,1,1.64-.57,2.41,2.41,0,0,1,1.66.57,1.87,1.87,0,0,1,.63,1.46,1.93,1.93,0,0,1-.63,1.48A2.41,2.41,0,0,1,119.22,64.05Zm2,14.89h-4V66.08h4Z"/><path class="cls-4" d="M134.27,78.48a8,8,0,0,1-3.88.77,6.54,6.54,0,0,1-4.8-1.79,6.21,6.21,0,0,1-1.83-4.64,6.82,6.82,0,0,1,2-5.16A7.3,7.3,0,0,1,131,65.77a6.79,6.79,0,0,1,3.29.6v3.36a4.51,4.51,0,0,0-2.77-.93,3.68,3.68,0,0,0-2.71,1,3.73,3.73,0,0,0-1,2.76,3.69,3.69,0,0,0,1,2.68,3.53,3.53,0,0,0,2.63,1,5.3,5.3,0,0,0,2.9-.92Z"/><path class="cls-4" d="M145.26,69.66a3.46,3.46,0,0,0-1.67-.39,2.41,2.41,0,0,0-2,1,4.1,4.1,0,0,0-.73,2.58v6.14h-4V66.08h4v2.39h0a3.44,3.44,0,0,1,3.39-2.62,2.38,2.38,0,0,1,1,.16Z"/><path class="cls-4" d="M153.13,79.25a6.92,6.92,0,0,1-5-1.8,7.45,7.45,0,0,1,.07-9.88,7.21,7.21,0,0,1,5.16-1.8,6.87,6.87,0,0,1,5,1.8,6.42,6.42,0,0,1,1.82,4.77,6.81,6.81,0,0,1-1.88,5.06A7,7,0,0,1,153.13,79.25Zm.1-10.45a2.66,2.66,0,0,0-2.18,1,4.28,4.28,0,0,0-.78,2.74q0,3.7,3,3.7c1.9,0,2.85-1.26,2.85-3.8S155.15,68.8,153.23,68.8Z"/><path class="cls-4" d="M161.89,78.6V75.39a8.35,8.35,0,0,0,2,.87,6.25,6.25,0,0,0,1.84.3,3.84,3.84,0,0,0,1.67-.3.92.92,0,0,0,.6-.87.82.82,0,0,0-.27-.63,2.69,2.69,0,0,0-.71-.44A7.53,7.53,0,0,0,166,74c-.34-.1-.67-.21-1-.34a9.5,9.5,0,0,1-1.35-.62,3.85,3.85,0,0,1-1-.77,3,3,0,0,1-.6-1,4,4,0,0,1-.21-1.37,3.57,3.57,0,0,1,.47-1.86,3.73,3.73,0,0,1,1.26-1.27,5.62,5.62,0,0,1,1.79-.73,9.16,9.16,0,0,1,2.11-.23,11.48,11.48,0,0,1,1.73.13,13,13,0,0,1,1.73.38v3.07a5.81,5.81,0,0,0-1.61-.66,6.71,6.71,0,0,0-1.69-.22,3.51,3.51,0,0,0-.74.07,2.19,2.19,0,0,0-.61.2,1.06,1.06,0,0,0-.41.34.75.75,0,0,0-.15.47.87.87,0,0,0,.22.6,1.85,1.85,0,0,0,.6.43,5.06,5.06,0,0,0,.81.33l.88.29a11.38,11.38,0,0,1,1.43.61,4.55,4.55,0,0,1,1.1.76,3,3,0,0,1,.7,1,4.07,4.07,0,0,1-.25,3.36A4,4,0,0,1,170,78.28a5.84,5.84,0,0,1-1.9.74,10.23,10.23,0,0,1-2.23.23A11.33,11.33,0,0,1,161.89,78.6Z"/><path class="cls-4" d="M180.17,79.25a6.92,6.92,0,0,1-5-1.8,7.45,7.45,0,0,1,.07-9.88,7.21,7.21,0,0,1,5.16-1.8,6.83,6.83,0,0,1,5,1.8,6.38,6.38,0,0,1,1.82,4.77,6.81,6.81,0,0,1-1.87,5.06A7,7,0,0,1,180.17,79.25Zm.1-10.45a2.66,2.66,0,0,0-2.18,1,4.28,4.28,0,0,0-.78,2.74q0,3.7,3,3.7c1.9,0,2.85-1.26,2.85-3.8S182.19,68.8,180.27,68.8Z"/><path class="cls-4" d="M197.77,62.94a4,4,0,0,0-1.47-.3c-1.27,0-1.91.69-1.91,2.07v1.37h2.94V69h-2.94v9.93h-4V69h-2.16V66.08h2.16v-1.6a4.63,4.63,0,0,1,1.44-3.54,5.47,5.47,0,0,1,3.89-1.34,6.8,6.8,0,0,1,2,.25Z"/><path class="cls-4" d="M207.5,78.79a5.83,5.83,0,0,1-2.65.46q-4.18,0-4.19-4.35V69h-2.09V66.08h2.09V63.3l4-1.13v3.91h2.88V69h-2.88v5.2c0,1.33.53,2,1.59,2a2.68,2.68,0,0,0,1.29-.36Z"/><path class="cls-4" d="M258.07,194.64a637.12,637.12,0,0,0-216.14,0,11.68,11.68,0,0,1-13.49-9.17L17.52,128.24c-1.2-6.2,3.56-12.33,10.65-13.55a718.61,718.61,0,0,1,243.66,0c7.09,1.22,11.85,7.35,10.65,13.55l-10.92,57.23A11.67,11.67,0,0,1,258.07,194.64Z"/><path class="cls-5" d="M260.06,196.24a13.08,13.08,0,0,1-2.23-.19h0a634.31,634.31,0,0,0-215.66,0A13.16,13.16,0,0,1,27,185.74L16.12,128.51a12,12,0,0,1,2-9.14,15,15,0,0,1,9.8-6.09,718.36,718.36,0,0,1,244.14,0,14.93,14.93,0,0,1,9.8,6.09,12,12,0,0,1,2,9.14L273,185.74A13.15,13.15,0,0,1,260.06,196.24ZM150,105.69A716.74,716.74,0,0,0,28.41,116.1,12,12,0,0,0,20.49,121a9.13,9.13,0,0,0-1.56,7L29.85,185.2a10.26,10.26,0,0,0,11.84,8,637.18,637.18,0,0,1,216.63,0,10.27,10.27,0,0,0,11.84-8L281.07,128a9.14,9.14,0,0,0-1.55-7,12.07,12.07,0,0,0-7.93-4.89A716.74,716.74,0,0,0,150,105.69Z"/><path class="cls-5" d="M260.06,197.67a14.8,14.8,0,0,1-2.47-.21h0a632.52,632.52,0,0,0-215.18,0A14.59,14.59,0,0,1,25.64,186L14.72,128.77A13.4,13.4,0,0,1,17,118.55a16.41,16.41,0,0,1,10.73-6.68,719.64,719.64,0,0,1,244.62,0A16.41,16.41,0,0,1,283,118.55a13.37,13.37,0,0,1,2.24,10.23L274.37,186A14.6,14.6,0,0,1,260.06,197.67ZM150,107.12A714.94,714.94,0,0,0,28.65,117.51a10.66,10.66,0,0,0-7,4.29,7.72,7.72,0,0,0-1.33,5.89l10.92,57.24a8.84,8.84,0,0,0,10.19,6.89,638.52,638.52,0,0,1,217.12,0,8.84,8.84,0,0,0,10.19-6.89l10.92-57.23a7.73,7.73,0,0,0-1.33-5.9,10.66,10.66,0,0,0-7-4.29A714.94,714.94,0,0,0,150,107.12Z"/><path class="cls-6" d="M59.28,161.29a13.17,13.17,0,0,1-5.52,1.82,9.62,9.62,0,0,1-7.54-1.7,9.85,9.85,0,0,1-3.59-6.79,10.59,10.59,0,0,1,1.88-8.12,10.39,10.39,0,0,1,7.22-4,14.44,14.44,0,0,1,5,.07l.59,4.3a8.71,8.71,0,0,0-4.7-.57,6,6,0,0,0-4.27,2.37,6.55,6.55,0,0,0-1.06,5A6.4,6.4,0,0,0,49.53,158a5.76,5.76,0,0,0,4.59,1.11,9.3,9.3,0,0,0,4.61-1.92Z"/><path class="cls-6" d="M75.21,160.42,63.27,161.6l-2-19.91,11.49-1.14.36,3.65-7,.69.44,4.43,6.51-.64.36,3.64-6.51.64.45,4.56,7.46-.74Z"/><path class="cls-6" d="M95.59,158.92l-5.16.36L87,154.37c-.26-.37-.51-.71-.75-1a5.56,5.56,0,0,0-.7-.74,2.53,2.53,0,0,0-.72-.45,1.69,1.69,0,0,0-.78-.12l-1.21.09.54,7.64-4.49.32-1.42-20,7.12-.51q7.28-.51,7.65,4.91a5.72,5.72,0,0,1-.18,2,5.24,5.24,0,0,1-.79,1.65,5.6,5.6,0,0,1-1.33,1.33,7.52,7.52,0,0,1-1.78.94v0a2.93,2.93,0,0,1,.9.39,6.56,6.56,0,0,1,.86.68,10.77,10.77,0,0,1,.81.84c.26.31.49.6.71.89ZM82.16,143.2l.4,5.55,2-.14a3.18,3.18,0,0,0,2.26-1,2.76,2.76,0,0,0,.74-2.16q-.18-2.62-3.32-2.4Z"/><path class="cls-6" d="M110.58,141.86l-5.7.28.79,16.32-4.52.22-.79-16.32-5.67.27L94.51,139l15.89-.77Z"/><path class="cls-6" d="M119.07,158l-4.51.15-.67-20,4.51-.15Z"/><path class="cls-6" d="M135.36,141.22l-7.06.14.1,4.92,6.49-.14.07,3.66-6.49.13.16,7.77-4.51.09-.4-20,11.56-.24Z"/><path class="cls-6" d="M144,157.5l-4.51,0-.15-20,4.51,0Z"/><path class="cls-6" d="M163.37,156.83a13.23,13.23,0,0,1-5.73,1,9.61,9.61,0,0,1-7.22-2.75,9.88,9.88,0,0,1-2.6-7.23,10.57,10.57,0,0,1,3-7.77,10.37,10.37,0,0,1,7.72-2.94,14.33,14.33,0,0,1,4.93.77l0,4.34a8.69,8.69,0,0,0-4.56-1.23,6.06,6.06,0,0,0-4.56,1.75,6.52,6.52,0,0,0-1.76,4.79,6.45,6.45,0,0,0,1.6,4.63,5.74,5.74,0,0,0,4.39,1.75,9.43,9.43,0,0,0,4.83-1.25Z"/><path class="cls-6" d="M185,158.06l-4.91-.13-1.31-4.49-7.11-.18-1.53,4.42-4.88-.13,7.8-19.82,5.34.14Zm-7.16-8.1-2-6.78a9.39,9.39,0,0,1-.29-1.81h-.11a7.58,7.58,0,0,1-.39,1.73l-2.35,6.73Z"/><path class="cls-6" d="M200.69,142.41l-5.71-.25-.71,16.33-4.52-.2.72-16.33-5.68-.24.17-3.67,15.89.7Z"/><path class="cls-6" d="M207.66,159.22l-4.5-.27,1.2-20,4.5.27Z"/><path class="cls-6" d="M221,160.55a9.31,9.31,0,0,1-6.75-3.37,10,10,0,0,1-2.1-7.49,10.78,10.78,0,0,1,3.37-7.42,9.5,9.5,0,0,1,7.5-2.32,9.07,9.07,0,0,1,6.68,3.37,10.28,10.28,0,0,1,2,7.58,10.6,10.6,0,0,1-3.35,7.36A9.47,9.47,0,0,1,221,160.55Zm1.58-16.75a4.52,4.52,0,0,0-3.9,1.47,8.64,8.64,0,0,0-.78,9.38,4.47,4.47,0,0,0,3.5,2,4.53,4.53,0,0,0,3.83-1.37,7.22,7.22,0,0,0,1.75-4.54,7.76,7.76,0,0,0-.93-4.93A4.3,4.3,0,0,0,222.62,143.8Z"/><path class="cls-6" d="M252.46,163.63l-4.51-.57-6.61-13.5a17.44,17.44,0,0,1-.79-1.78h-.05c0,.71-.12,1.78-.3,3.22l-1.37,10.91-4.23-.53,2.51-19.85,4.82.6,6.35,13.09c.29.58.56,1.17.79,1.74h.06a20.74,20.74,0,0,1,.23-2.75l1.38-11,4.23.53Z"/></svg>